<?xml version="1.0" encoding="utf-8"?>
<!-- Generator: Adobe Illustrator 24.1.2, SVG Export Plug-In . SVG Version: 6.00 Build 0)  -->
<svg version="1.1" id="Layer_1" xmlns="http://www.w3.org/2000/svg" xmlns:xlink="http://www.w3.org/1999/xlink" x="0px" y="0px"
	 viewBox="0 0 332 6" style="enable-background:new 0 0 332 6;" xml:space="preserve">
<style type="text/css">
	.st0{fill:#B4CA87;}
</style>
<path class="st0" d="M17.47,0H3.25c-1.66,0-3,1.34-3,3l0,0c0,1.66,1.34,3,3,3h14.22c1.66,0,3-1.34,3-3l0,0
	C20.47,1.34,19.12,0,17.47,0z"/>
<path class="st0" d="M41.36,0H27.14c-1.66,0-3,1.34-3,3l0,0c0,1.66,1.34,3,3,3h14.22c1.66,0,3-1.34,3-3l0,0
	C44.36,1.34,43.01,0,41.36,0z"/>
<path class="st0" d="M65.83,0H51.61c-1.66,0-3,1.34-3,3l0,0c0,1.66,1.34,3,3,3h14.22c1.66,0,3-1.34,3-3l0,0
	C68.83,1.34,67.49,0,65.83,0z"/>
<path class="st0" d="M89.15,0H74.93c-1.66,0-3,1.34-3,3l0,0c0,1.66,1.34,3,3,3h14.22c1.66,0,3-1.34,3-3l0,0
	C92.15,1.34,90.81,0,89.15,0z"/>
<path class="st0" d="M113.15,0H98.93c-1.66,0-3,1.34-3,3l0,0c0,1.66,1.34,3,3,3h14.22c1.66,0,3-1.34,3-3l0,0
	C116.15,1.34,114.81,0,113.15,0z"/>
<path class="st0" d="M137.15,0h-14.22c-1.66,0-3,1.34-3,3l0,0c0,1.66,1.34,3,3,3h14.22c1.66,0,3-1.34,3-3l0,0
	C140.15,1.34,138.81,0,137.15,0z"/>
<path class="st0" d="M161.49,0h-14.22c-1.66,0-3,1.34-3,3l0,0c0,1.66,1.34,3,3,3h14.22c1.66,0,3-1.34,3-3l0,0
	C164.49,1.34,163.15,0,161.49,0z"/>
<path class="st0" d="M185.49,0h-14.22c-1.66,0-3,1.34-3,3l0,0c0,1.66,1.34,3,3,3h14.22c1.66,0,3-1.34,3-3l0,0
	C188.49,1.34,187.15,0,185.49,0z"/>
<path class="st0" d="M209.49,0h-14.22c-1.66,0-3,1.34-3,3l0,0c0,1.66,1.34,3,3,3h14.22c1.66,0,3-1.34,3-3l0,0
	C212.49,1.34,211.15,0,209.49,0z"/>
<path class="st0" d="M233.49,0h-14.22c-1.66,0-3,1.34-3,3l0,0c0,1.66,1.34,3,3,3h14.22c1.66,0,3-1.34,3-3l0,0
	C236.49,1.34,235.15,0,233.49,0z"/>
<path class="st0" d="M256.93,0h-14.22c-1.66,0-3,1.34-3,3l0,0c0,1.66,1.34,3,3,3h14.22c1.66,0,3-1.34,3-3l0,0
	C259.93,1.34,258.59,0,256.93,0z"/>
<path class="st0" d="M280.93,0h-14.22c-1.66,0-3,1.34-3,3l0,0c0,1.66,1.34,3,3,3h14.22c1.66,0,3-1.34,3-3l0,0
	C283.93,1.34,282.59,0,280.93,0z"/>
<path class="st0" d="M304.93,0h-14.22c-1.66,0-3,1.34-3,3l0,0c0,1.66,1.34,3,3,3h14.22c1.66,0,3-1.34,3-3l0,0
	C307.93,1.34,306.59,0,304.93,0z"/>
<path class="st0" d="M328.93,0h-14.22c-1.66,0-3,1.34-3,3l0,0c0,1.66,1.34,3,3,3h14.22c1.66,0,3-1.34,3-3l0,0
	C331.93,1.34,330.59,0,328.93,0z"/>
</svg>
