<?xml version="1.0" encoding="utf-8"?>
<!-- Generator: Adobe Illustrator 24.1.2, SVG Export Plug-In . SVG Version: 6.00 Build 0)  -->
<svg version="1.1" id="Layer_1" xmlns="http://www.w3.org/2000/svg" xmlns:xlink="http://www.w3.org/1999/xlink" x="0px" y="0px"
	 viewBox="0 0 332 6" style="enable-background:new 0 0 332 6;" xml:space="preserve">
<style type="text/css">
	.st0{fill:#767C69;}
	.st1{fill:#B4CA87;}
</style>
<path class="st0" d="M281.25,0h-14.22c-1.66,0-3,1.34-3,3l0,0c0,1.66,1.34,3,3,3h14.22c1.66,0,3-1.34,3-3l0,0
	C284.25,1.34,282.9,0,281.25,0z"/>
<path class="st0" d="M185.33,0h-14.22c-1.66,0-3,1.34-3,3l0,0c0,1.66,1.34,3,3,3h14.22c1.66,0,3-1.34,3-3l0,0
	C188.33,1.34,186.98,0,185.33,0z"/>
<path class="st0" d="M89.41,0H75.19c-1.66,0-3,1.34-3,3l0,0c0,1.66,1.34,3,3,3h14.22c1.66,0,3-1.34,3-3l0,0
	C92.41,1.34,91.06,0,89.41,0z"/>
<path class="st0" d="M233.29,0h-14.22c-1.66,0-3,1.34-3,3l0,0c0,1.66,1.34,3,3,3h14.22c1.66,0,3-1.34,3-3l0,0
	C236.29,1.34,234.94,0,233.29,0z"/>
<path class="st0" d="M137.37,0h-14.22c-1.66,0-3,1.34-3,3l0,0c0,1.66,1.34,3,3,3h14.22c1.66,0,3-1.34,3-3l0,0
	C140.37,1.34,139.02,0,137.37,0z"/>
<path class="st0" d="M257.27,0h-14.22c-1.66,0-3,1.34-3,3l0,0c0,1.66,1.34,3,3,3h14.22c1.66,0,3-1.34,3-3l0,0
	C260.27,1.34,258.92,0,257.27,0z"/>
<path class="st0" d="M161.35,0h-14.22c-1.66,0-3,1.34-3,3l0,0c0,1.66,1.34,3,3,3h14.22c1.66,0,3-1.34,3-3l0,0
	C164.35,1.34,163,0,161.35,0z"/>
<path class="st0" d="M65.43,0H51.21c-1.66,0-3,1.34-3,3l0,0c0,1.66,1.34,3,3,3h14.22c1.66,0,3-1.34,3-3l0,0
	C68.43,1.34,67.08,0,65.43,0z"/>
<path class="st0" d="M209.31,0h-14.22c-1.66,0-3,1.34-3,3l0,0c0,1.66,1.34,3,3,3h14.22c1.66,0,3-1.34,3-3l0,0
	C212.31,1.34,210.96,0,209.31,0z"/>
<path class="st0" d="M113.39,0H99.17c-1.66,0-3,1.34-3,3l0,0c0,1.66,1.34,3,3,3h14.22c1.66,0,3-1.34,3-3l0,0
	C116.39,1.34,115.04,0,113.39,0z"/>
<path class="st1" d="M17.47,0H3.25c-1.66,0-3,1.34-3,3l0,0c0,1.66,1.34,3,3,3h14.22c1.66,0,3-1.34,3-3l0,0
	C20.47,1.34,19.12,0,17.47,0z"/>
<path class="st0" d="M329.36,0h-14.22c-1.66,0-3,1.34-3,3l0,0c0,1.66,1.34,3,3,3h14.22c1.66,0,3-1.34,3-3l0,0
	C332.36,1.34,331.01,0,329.36,0z"/>
<path class="st0" d="M305.36,0h-14.22c-1.66,0-3,1.34-3,3l0,0c0,1.66,1.34,3,3,3h14.22c1.66,0,3-1.34,3-3l0,0
	C308.36,1.34,307.01,0,305.36,0z"/>
<path class="st1" d="M41.36,0H27.14c-1.66,0-3,1.34-3,3l0,0c0,1.66,1.34,3,3,3h14.22c1.66,0,3-1.34,3-3l0,0
	C44.36,1.34,43.01,0,41.36,0z"/>
</svg>
